<?xml version="1.0" ?><!DOCTYPE svg  PUBLIC '-//W3C//DTD SVG 1.1//EN'  'http://www.w3.org/Graphics/SVG/1.1/DTD/svg11.dtd'><svg enable-background="new 0 0 48 48" height="48px" version="1.1" viewBox="0 0 48 48" width="48px" xml:space="preserve" xmlns="http://www.w3.org/2000/svg" xmlns:xlink="http://www.w3.org/1999/xlink"><g id="Layer_3"><g><circle cx="2.149" cy="16.339" r="2.137"/><circle cx="9.652" cy="12.105"  r="3.437"/><circle cx="8.563" cy="5.986"  r="1.593"/><path d="M47.988,26.084h-1.428h-1.252H2.69H2.063H0.012c1.707,5.348,5.16,9.904,9.676,13.037l-4.487,4.486h3.562    l3.121-3.121c3.596,1.98,7.72,3.121,12.117,3.121c4.38,0,8.489-1.131,12.076-3.098l3.098,3.098h3.562l-4.461-4.461    C42.809,36.016,46.276,31.447,47.988,26.084z" /><path d="M40.369,7.226c2.781,0,5.037,2.255,5.037,5.037v8.732H0.076v3.725h47.849v-3.306v-0.419v-8.732    c0-0.206-0.016-0.408-0.031-0.61c-0.002-0.061-0.004-0.104-0.004-0.104l-0.001,0c-0.361-3.836-3.588-6.84-7.52-6.84    c-4.172,0-7.555,3.383-7.555,7.555h2.519C35.333,9.481,37.588,7.226,40.369,7.226z" /></g></g></svg>
